<mxfile host="app.diagrams.net" modified="2021-05-18T08:29:01.224Z" agent="5.0 (Windows NT 10.0; Win64; x64) AppleWebKit/537.36 (KHTML, like Gecko) Chrome/90.0.4430.212 Safari/537.36 Edg/90.0.818.62" etag="_HkgHnHQO4WeFD1CjlWH" version="14.6.13" type="github">
  <diagram id="VL0vvVUHVTiF48u8kUOG" name="Page-1">
    <mxGraphModel dx="768" dy="803" grid="1" gridSize="10" guides="1" tooltips="1" connect="1" arrows="1" fold="1" page="1" pageScale="1" pageWidth="827" pageHeight="1169" math="0" shadow="0">
      <root>
        <mxCell id="0" />
        <mxCell id="1" parent="0" />
        <mxCell id="0XeIq-HeB3lPXhm3yoCl-1" value="盘客v1&lt;br&gt;" style="rounded=0;whiteSpace=wrap;html=1;" vertex="1" parent="1">
          <mxGeometry x="310" y="110" width="120" height="60" as="geometry" />
        </mxCell>
        <mxCell id="0XeIq-HeB3lPXhm3yoCl-10" style="edgeStyle=orthogonalEdgeStyle;rounded=0;orthogonalLoop=1;jettySize=auto;html=1;exitX=0.5;exitY=1;exitDx=0;exitDy=0;entryX=0.5;entryY=0;entryDx=0;entryDy=0;shape=arrow;shadow=0;sketch=1;" edge="1" parent="1" source="0XeIq-HeB3lPXhm3yoCl-3" target="0XeIq-HeB3lPXhm3yoCl-5">
          <mxGeometry relative="1" as="geometry" />
        </mxCell>
        <mxCell id="0XeIq-HeB3lPXhm3yoCl-3" value="&lt;span&gt;agent-api&lt;/span&gt;" style="rounded=1;whiteSpace=wrap;html=1;strokeWidth=2;fillWeight=4;hachureGap=8;hachureAngle=45;sketch=1;fillColor=#CCFFFF;dashed=1;" vertex="1" parent="1">
          <mxGeometry x="100" y="190" width="120" height="60" as="geometry" />
        </mxCell>
        <mxCell id="0XeIq-HeB3lPXhm3yoCl-4" value="" style="rounded=1;whiteSpace=wrap;html=1;strokeWidth=2;fillWeight=4;hachureGap=8;hachureAngle=45;sketch=1;fillColor=#CCFFFF;dashed=1;" vertex="1" parent="1">
          <mxGeometry x="430" y="400" width="120" height="60" as="geometry" />
        </mxCell>
        <mxCell id="0XeIq-HeB3lPXhm3yoCl-11" style="edgeStyle=orthogonalEdgeStyle;shape=arrow;rounded=0;orthogonalLoop=1;jettySize=auto;html=1;exitX=0.5;exitY=1;exitDx=0;exitDy=0;entryX=0.5;entryY=0;entryDx=0;entryDy=0;sketch=1;" edge="1" parent="1" source="0XeIq-HeB3lPXhm3yoCl-5" target="0XeIq-HeB3lPXhm3yoCl-8">
          <mxGeometry relative="1" as="geometry" />
        </mxCell>
        <mxCell id="0XeIq-HeB3lPXhm3yoCl-5" value="删除旧包" style="rounded=1;whiteSpace=wrap;html=1;strokeWidth=2;fillWeight=4;hachureGap=8;hachureAngle=45;sketch=1;fillColor=#CCFFFF;dashed=1;" vertex="1" parent="1">
          <mxGeometry x="100" y="320" width="120" height="60" as="geometry" />
        </mxCell>
        <mxCell id="0XeIq-HeB3lPXhm3yoCl-12" style="edgeStyle=orthogonalEdgeStyle;shape=arrow;rounded=0;orthogonalLoop=1;jettySize=auto;html=1;exitX=0.5;exitY=1;exitDx=0;exitDy=0;entryX=0.5;entryY=0;entryDx=0;entryDy=0;sketch=1;" edge="1" parent="1" source="0XeIq-HeB3lPXhm3yoCl-8" target="0XeIq-HeB3lPXhm3yoCl-9">
          <mxGeometry relative="1" as="geometry" />
        </mxCell>
        <mxCell id="0XeIq-HeB3lPXhm3yoCl-8" value="git clone 拉取分支" style="rounded=1;whiteSpace=wrap;html=1;strokeWidth=2;fillWeight=4;hachureGap=8;hachureAngle=45;sketch=1;fillColor=#CCFFFF;dashed=1;" vertex="1" parent="1">
          <mxGeometry x="100" y="430" width="120" height="60" as="geometry" />
        </mxCell>
        <mxCell id="0XeIq-HeB3lPXhm3yoCl-9" value="重新构建&lt;br&gt;mvn clean install" style="rounded=1;whiteSpace=wrap;html=1;strokeWidth=2;fillWeight=4;hachureGap=8;hachureAngle=45;sketch=1;fillColor=#CCFFFF;dashed=1;" vertex="1" parent="1">
          <mxGeometry x="100" y="540" width="120" height="60" as="geometry" />
        </mxCell>
      </root>
    </mxGraphModel>
  </diagram>
</mxfile>
